# xmcd
#
# Track frame offsets: 
#        150
#        11650
#        25879
#        48630
#        64472
#        76915
#        88039
#        98563
#        112252
#        129312
#        144002
#        155182
#        171292
#        183678
#
# Disc length: 2685 seconds
#
# Revision: 0
# Processed by: cddbd v1.5.2PL0 Copyright (c) Steve Scherf et al.
# Submitted via: ExactAudioCopy v0.99pb4
#
DISCID=bf0a7b0e
DTITLE=John Lee Hooker - Boom Boom Platinum Collection CD 1
DYEAR=2005
DGENRE=Blues
TTITLE0=Boom Boom
TTITLE1=Boogie Chillen 2
TTITLE2=Tupelo
TTITLE3=It Serves Me Right To Suffer
TTITLE4=Frisco
TTITLE5=Good Rockin' Mama
TTITLE6=Dusty Road
TTITLE7=Hobo Blues
TTITLE8=Process
TTITLE9=Moanin' Blues
TTITLE10=You've Taken My Woman
TTITLE11=Maudie
TTITLE12=Trouble Blues
TTITLE13=Wednesday Evenin' Blues
EXTD=
EXTT0=
EXTT1=
EXTT2=
EXTT3=
EXTT4=
EXTT5=
EXTT6=
EXTT7=
EXTT8=
EXTT9=
EXTT10=
EXTT11=
EXTT12=
EXTT13=
PLAYORDER=
